<svg width="31" height="57" viewBox="0 0 31 57" fill="none" xmlns="http://www.w3.org/2000/svg">
<g clip-path="url(#clip0_64_7941)">
<path d="M0 0V57L15.55 48.25L31 57V0H0Z" fill="url(#paint0_linear_64_7941)"/>
<path d="M23.0501 30.1001H18.3501V28.9501H23.0501V30.1001ZM15.2501 34.5001C15.6001 35.0001 15.7501 35.6501 15.7501 36.3501C15.7501 36.9501 15.6501 37.4501 15.4001 37.8501C15.1501 38.3001 14.8501 38.6502 14.5001 38.9002C14.1001 39.1502 13.7001 39.3502 13.2001 39.5002C12.7001 39.6502 12.2001 39.7002 11.7001 39.7002H6.1001V28.1501H11.5501C12.1001 28.1501 12.6001 28.2001 13.0501 28.3001C13.5001 28.4001 13.9001 28.5501 14.2001 28.8001C14.5001 29.0001 14.7501 29.3001 14.9501 29.7001C15.1501 30.0501 15.2001 30.5001 15.2001 31.0501C15.2001 31.6501 15.0501 32.1001 14.8001 32.5001C14.5501 32.9001 14.1501 33.2001 13.6001 33.4501C14.4001 33.6501 14.9001 34.0001 15.2501 34.5001ZM8.6501 32.8501H11.2001C11.6501 32.8501 12.0001 32.7501 12.3001 32.5501C12.6001 32.3501 12.7501 32.0001 12.7501 31.5001C12.7501 31.2501 12.7001 31.0001 12.6001 30.8501C12.5001 30.7001 12.3501 30.5501 12.2001 30.4501C12.0501 30.3501 11.8501 30.3001 11.6501 30.2501C11.4501 30.2001 11.2001 30.2001 11.0001 30.2001H8.6001L8.6501 32.8501ZM13.2501 36.2002C13.2501 35.6002 13.1001 35.2002 12.7501 34.9502C12.4001 34.7002 11.9501 34.5501 11.4501 34.5501H8.7001V37.7502H11.4001C11.6501 37.7502 11.9001 37.7502 12.1001 37.7002C12.3501 37.6502 12.5501 37.5502 12.7001 37.4502C12.8501 37.3502 13.0001 37.2002 13.1001 37.0001C13.2001 36.7501 13.2501 36.5002 13.2501 36.2002ZM24.8501 36.1001H18.8501C18.8501 36.7501 19.0501 37.4002 19.4001 37.7002C19.7501 38.0502 20.2501 38.2002 20.9001 38.2002C21.3501 38.2002 21.7501 38.1001 22.1001 37.8501C22.4501 37.6001 22.6501 37.3501 22.7001 37.1001H24.7001C24.4001 38.1001 23.9001 38.8002 23.2001 39.2502C22.5501 39.7002 21.7501 39.9002 20.8001 39.9002C20.1501 39.9002 19.5501 39.8001 19.0001 39.6001C18.4501 39.4001 18.0001 39.1002 17.6501 38.7002C17.3001 38.3002 17.0001 37.8501 16.8001 37.3001C16.6001 36.7501 16.5001 36.1501 16.5001 35.5001C16.5001 34.9001 16.6001 34.3001 16.8001 33.7501C17.0001 33.2001 17.3001 32.7501 17.6501 32.3501C18.0501 31.9501 18.5001 31.6501 19.0001 31.4001C19.5001 31.1501 20.1001 31.0501 20.7501 31.0501C21.4501 31.0501 22.1001 31.2001 22.6001 31.4501C23.1501 31.7001 23.5501 32.1001 23.9001 32.5501C24.2501 33.0001 24.5001 33.5502 24.6501 34.1502C24.8501 34.8002 24.9001 35.4501 24.8501 36.1001ZM22.5501 34.6502C22.5001 34.0502 22.3001 33.6501 22.0001 33.3501C21.7501 33.0501 21.2501 32.9002 20.7001 32.9002C20.3501 32.9002 20.0501 32.9501 19.8001 33.1001C19.5501 33.2001 19.3501 33.4001 19.2001 33.5501C19.0501 33.7501 18.9501 33.9502 18.9001 34.1502C18.8501 34.3502 18.8001 34.5501 18.8001 34.7002H22.5501V34.6502Z" fill="white"/>
</g>
<defs>
<linearGradient id="paint0_linear_64_7941" x1="15.5" y1="56.1667" x2="15.5" y2="0.0675508" gradientUnits="userSpaceOnUse">
<stop stop-color="#0D3BFF"/>
<stop offset="0.6622" stop-color="#014DFF"/>
<stop offset="1" stop-color="#0050FF"/>
</linearGradient>
<clipPath id="clip0_64_7941">
<rect width="31" height="57" fill="white"/>
</clipPath>
</defs>
</svg>
