<svg width="31" height="57" viewBox="0 0 31 57" fill="none" xmlns="http://www.w3.org/2000/svg">
<g clip-path="url(#clip0_64_7970)">
<path d="M0 0V57L15.55 48.25L31 57V0H0Z" fill="url(#paint0_linear_64_7970)"/>
<path d="M6.45996 28.3799H11.39C13.935 28.3799 15.645 29.7999 15.645 32.0649C15.645 34.6599 13.69 35.8549 11.335 35.8549H9.03496V40.2999H6.45996V28.3799ZM9.03996 33.7949H11C12.195 33.7949 13.04 33.3249 13.04 32.1149C13.04 30.9049 12.14 30.4199 11.04 30.4199H9.03996V33.7949Z" fill="white"/>
<path d="M24.7602 28V37.845C24.7602 38.66 24.7602 39.49 24.7602 40.3H22.4052C22.3552 40.025 22.3002 39.575 22.2852 39.365C21.8502 40.08 21.0702 40.5 19.7402 40.5C17.4752 40.5 16.0352 38.685 16.0352 35.88C16.0352 33.075 17.5352 31.12 20.1002 31.12C21.4002 31.12 22.1002 31.585 22.2802 31.985V28H24.7602ZM20.5002 38.5C22.1952 38.5 22.4052 37.08 22.4052 35.8C22.4052 34.26 22.1802 33.1 20.5552 33.1C19.2552 33.1 18.6002 34.1 18.6002 35.815C18.6002 37.53 19.2552 38.5 20.5002 38.5Z" fill="white"/>
</g>
<defs>
<linearGradient id="paint0_linear_64_7970" x1="15.5" y1="57" x2="15.5" y2="0" gradientUnits="userSpaceOnUse">
<stop stop-color="#C4A45C"/>
<stop offset="0.75" stop-color="#C19F63"/>
</linearGradient>
<clipPath id="clip0_64_7970">
<rect width="31" height="57" fill="white"/>
</clipPath>
</defs>
</svg>
