<svg width="626" height="122" viewBox="0 0 626 122" fill="none" xmlns="http://www.w3.org/2000/svg">
<g filter="url(#filter0_d_1_777)">
<mask id="path-1-outside-1_1_777" maskUnits="userSpaceOnUse" x="2.42584" y="-0.0576366" width="621.262" height="114.293" fill="black">
<rect fill="white" x="2.42584" y="-0.0576366" width="621.262" height="114.293"/>
<path d="M234.587 100.029L336.801 74.1824C349.612 74.8619 360.641 74.9035 370.445 73.9484C379.665 72.9235 391.711 70.7482 404.845 67.4272C425.402 62.2291 429.247 58.8619 417.55 57.4651C412.872 56.9064 408.22 56.7762 401.285 57.2235C394.35 57.6708 387.442 58.5466 378.251 60C369.63 61.3089 362.75 62.6132 357.012 63.6286C351.274 64.6441 344.979 66.0182 336.386 67.7556C328.364 69.3486 324.367 70.3594 323.796 70.5038C307.167 73.62 293.978 76.0841 282.502 78.115C271.026 80.1459 257.239 82.3259 241.14 84.6551C224.455 86.9144 209.471 88.5263 196.77 89.5606C183.484 90.5251 169.586 90.9913 154.491 90.8894C139.395 90.7874 124.258 90.0428 110.807 88.4366C77.4707 84.4559 64.8711 78.062 72.4233 69.1853C79.9755 60.3085 107.164 49.95 153.417 38.2543C247.636 14.4297 332.991 6.12768 411.222 13.3435L304.44 40.3447C290.432 39.0971 277.091 39.2047 264.39 40.239C251.689 41.2734 238.5 43.7375 223.654 47.4916C212.804 50.2351 205.993 52.6105 204.391 54.7575C202.203 56.8346 204.626 58.3993 212.229 59.3072C219.247 60.1453 227.937 59.9074 237.156 58.8825C246.361 57.6434 261.291 55.1746 282.516 51.3317C289.396 50.0275 294.549 48.9422 299.145 48.2155C346.162 39.3746 380.033 33.6405 399.613 31.3019C445.655 25.3205 485.065 24.4995 519.571 28.6198C549.983 32.2513 561.97 38.1469 553.791 46.3111C545.613 54.4754 518.397 64.4054 471.573 76.2455C431.601 86.3529 391.449 93.6754 352.288 98.3525C313.126 103.03 274.273 103.492 234.587 100.029Z"/>
</mask>
<path d="M234.587 100.029L336.801 74.1824C349.612 74.8619 360.641 74.9035 370.445 73.9484C379.665 72.9235 391.711 70.7482 404.845 67.4272C425.402 62.2291 429.247 58.8619 417.55 57.4651C412.872 56.9064 408.22 56.7762 401.285 57.2235C394.35 57.6708 387.442 58.5466 378.251 60C369.63 61.3089 362.75 62.6132 357.012 63.6286C351.274 64.6441 344.979 66.0182 336.386 67.7556C328.364 69.3486 324.367 70.3594 323.796 70.5038C307.167 73.62 293.978 76.0841 282.502 78.115C271.026 80.1459 257.239 82.3259 241.14 84.6551C224.455 86.9144 209.471 88.5263 196.77 89.5606C183.484 90.5251 169.586 90.9913 154.491 90.8894C139.395 90.7874 124.258 90.0428 110.807 88.4366C77.4707 84.4559 64.8711 78.062 72.4233 69.1853C79.9755 60.3085 107.164 49.95 153.417 38.2543C247.636 14.4297 332.991 6.12768 411.222 13.3435L304.44 40.3447C290.432 39.0971 277.091 39.2047 264.39 40.239C251.689 41.2734 238.5 43.7375 223.654 47.4916C212.804 50.2351 205.993 52.6105 204.391 54.7575C202.203 56.8346 204.626 58.3993 212.229 59.3072C219.247 60.1453 227.937 59.9074 237.156 58.8825C246.361 57.6434 261.291 55.1746 282.516 51.3317C289.396 50.0275 294.549 48.9422 299.145 48.2155C346.162 39.3746 380.033 33.6405 399.613 31.3019C445.655 25.3205 485.065 24.4995 519.571 28.6198C549.983 32.2513 561.97 38.1469 553.791 46.3111C545.613 54.4754 518.397 64.4054 471.573 76.2455C431.601 86.3529 391.449 93.6754 352.288 98.3525C313.126 103.03 274.273 103.492 234.587 100.029Z" fill="#FF6E06"/>
<path d="M234.587 100.029L233.594 99.91L232.526 100.18L233.717 100.284L234.587 100.029ZM336.801 74.1824L337.532 73.9174L336.585 73.8672L335.808 74.0639L336.801 74.1824ZM370.445 73.9484L370.703 74.1861L370.751 74.1815L370.798 74.1762L370.445 73.9484ZM401.285 57.2235L401.269 56.9663L401.269 56.9663L401.285 57.2235ZM378.251 60L378.853 60.1952L378.869 60.1926L378.886 60.19L378.251 60ZM357.012 63.6286L356.284 63.4542L356.284 63.4542L357.012 63.6286ZM336.386 67.7556L337.206 67.9129L337.22 67.9101L336.386 67.7556ZM323.796 70.5038L324.57 70.6698L324.689 70.6476L324.789 70.6223L323.796 70.5038ZM282.502 78.115L283.23 78.2895L283.23 78.2895L282.502 78.115ZM241.14 84.6551L241.647 84.8638L241.675 84.8601L241.701 84.8562L241.14 84.6551ZM196.77 89.5606L196.847 89.8136L196.879 89.8113L196.912 89.8086L196.77 89.5606ZM154.491 90.8894L154.973 90.6172L154.973 90.6172L154.491 90.8894ZM72.4233 69.1853L71.0546 69.2279L72.4233 69.1853ZM411.222 13.3435L412.215 13.4621L413.266 13.1964L412.109 13.0896L411.222 13.3435ZM304.44 40.3447L303.565 40.5996L304.548 40.6872L305.433 40.4633L304.44 40.3447ZM264.39 40.239L264.532 40.4871L264.532 40.4871L264.39 40.239ZM204.391 54.7575L205.749 54.7259L205.758 54.7175L205.764 54.7092L204.391 54.7575ZM237.156 58.8825L237.508 59.1103L237.585 59.1018L237.659 59.0919L237.156 58.8825ZM282.516 51.3317L283.262 51.5029L283.281 51.4995L283.299 51.4961L282.516 51.3317ZM299.145 48.2155L299.78 48.4055L299.853 48.3939L299.922 48.3811L299.145 48.2155ZM399.613 31.3019L400.021 31.5234L400.054 31.5194L400.087 31.5151L399.613 31.3019ZM553.791 46.3111L555.152 46.2767L555.152 46.2767L553.791 46.3111ZM235.58 100.147L337.794 74.301L335.808 74.0639L233.594 99.91L235.58 100.147ZM336.07 74.4475C348.947 75.1305 360.363 75.1934 370.703 74.1861L370.188 73.7107C360.919 74.6136 350.277 74.5934 337.532 73.9174L336.07 74.4475ZM370.798 74.1762C380.366 73.1126 392.625 70.8869 405.838 67.5458L403.852 67.3086C390.798 70.6095 378.963 72.7345 370.093 73.7206L370.798 74.1762ZM405.838 67.5458C416.187 64.929 422.483 62.7359 424.639 60.9995C426.824 59.2403 424.734 57.962 418.52 57.22L416.581 57.7103C422.064 58.365 423.9 59.4687 421.947 61.0418C419.965 62.6377 414.061 64.7273 403.852 67.3086L405.838 67.5458ZM418.52 57.22C416.098 56.9307 413.627 56.7457 410.812 56.6957C407.992 56.6455 404.898 56.7322 401.269 56.9663L401.302 57.4807C404.608 57.2675 407.307 57.1956 409.716 57.2384C412.13 57.2814 414.324 57.4408 416.581 57.7103L418.52 57.22ZM401.269 56.9663C394.009 57.4346 386.87 58.3467 377.615 59.81L378.886 60.19C388.015 58.7466 394.691 57.9071 401.302 57.4807L401.269 56.9663ZM377.649 59.8048C368.942 61.1268 361.958 62.4499 356.284 63.4542L357.74 63.8031C363.542 62.7765 370.318 61.4911 378.853 60.1952L377.649 59.8048ZM356.284 63.4542C350.474 64.4823 344.054 65.8821 335.552 67.6011L337.22 67.9101C345.904 66.1543 352.074 64.8059 357.74 63.8031L356.284 63.4542ZM335.566 67.5983C327.47 69.206 323.416 70.2303 322.803 70.3852L324.789 70.6223C325.318 70.4885 329.258 69.4912 337.206 67.9129L335.566 67.5983ZM323.021 70.3377C306.387 73.4549 293.222 75.9145 281.774 77.9405L283.23 78.2895C294.734 76.2536 307.947 73.785 324.57 70.6698L323.021 70.3377ZM281.774 77.9405C270.365 79.9596 256.636 82.1307 240.578 84.4539L241.701 84.8562C257.842 82.5211 271.688 80.3322 283.23 78.2895L281.774 77.9405ZM240.632 84.4463C224.044 86.6926 209.183 88.2901 196.628 89.3126L196.912 89.8086C209.758 88.7624 224.867 87.1361 241.647 84.8638L240.632 84.4463ZM196.693 89.3075C183.619 90.2567 169.911 90.718 154.973 90.6172L154.008 91.1615C169.261 91.2645 183.349 90.7935 196.847 89.8136L196.693 89.3075ZM154.973 90.6172C140.052 90.5164 125.083 89.7804 111.776 88.1914L109.837 88.6817C123.434 90.3053 138.738 91.0584 154.008 91.1615L154.973 90.6172ZM111.776 88.1914C78.762 84.2492 66.3155 77.9305 73.7921 69.1426L71.0546 69.2279C63.4267 78.1936 76.1794 84.6626 109.837 88.6817L111.776 88.1914ZM73.7921 69.1426C81.2807 60.3405 108.269 50.0402 154.41 38.3729L152.424 38.1357C106.059 49.8598 78.6703 60.2765 71.0546 69.2279L73.7921 69.1426ZM154.41 38.3729C201.423 26.4851 246.072 18.51 288.568 14.3969C330.989 10.2912 371.479 10.0133 410.336 13.5974L412.109 13.0896C372.735 9.45786 331.432 9.72311 288.062 13.9206C244.769 18.1107 199.631 26.1989 152.424 38.1357L154.41 38.3729ZM410.229 13.225L303.447 40.2262L305.433 40.4633L412.215 13.4621L410.229 13.225ZM305.316 40.0899C291.075 38.8215 277.377 38.9218 264.248 39.991L264.532 40.4871C276.804 39.4876 289.789 39.3727 303.565 40.5996L305.316 40.0899ZM264.248 39.991C251.036 41.067 237.552 43.6077 222.661 47.3731L224.647 47.6102C239.449 43.8672 252.343 41.4797 264.532 40.4871L264.248 39.991ZM222.661 47.3731C211.737 50.1352 204.683 52.5743 203.017 54.8058L205.764 54.7092C207.304 52.6466 213.871 50.3349 224.647 47.6102L222.661 47.3731ZM203.033 54.789C200.756 56.9504 203.287 58.6004 211.259 59.5524L213.198 59.0621C205.964 58.1982 203.65 56.7189 205.749 54.7259L203.033 54.789ZM211.259 59.5524C218.675 60.4379 227.888 60.1798 237.508 59.1103L236.803 58.6547C227.985 59.6351 219.818 59.8526 213.198 59.0621L211.259 59.5524ZM237.659 59.0919C247.005 57.8339 262.036 55.3461 283.262 51.5029L281.769 51.1605C260.546 55.0031 245.718 57.4529 236.653 58.6732L237.659 59.0919ZM283.299 51.4961C286.743 50.8433 289.796 50.2372 292.484 49.7187C295.201 49.1947 297.572 48.7546 299.78 48.4055L298.509 48.0255C296.121 48.4031 293.618 48.869 290.889 49.3953C288.132 49.9273 285.169 50.5159 281.732 51.1674L283.299 51.4961ZM299.922 48.3811C346.966 39.5351 380.67 33.8345 400.021 31.5234L399.206 31.0804C379.395 33.4464 345.359 39.214 298.368 48.0499L299.922 48.3811ZM400.087 31.5151C422.911 28.55 444.005 26.8746 463.624 26.4434C483.243 26.0121 501.497 26.8226 518.601 28.865L520.54 28.3747C503.138 26.2967 484.434 25.4575 464.212 25.902C443.989 26.3466 422.357 28.0724 399.139 31.0887L400.087 31.5151ZM518.601 28.865C548.698 32.4589 560.512 38.2781 552.43 46.3456L555.152 46.2767C563.428 38.0156 551.267 32.0438 520.54 28.3747L518.601 28.865ZM552.43 46.3456C544.327 54.4351 517.317 64.3088 470.58 76.1269L472.566 76.3641C519.477 64.502 546.899 54.5158 555.152 46.2767L552.43 46.3456ZM470.58 76.1269C430.722 86.2055 390.762 93.4873 351.88 98.131L352.695 98.574C392.136 93.8634 432.48 86.5003 472.566 76.3641L470.58 76.1269ZM351.88 98.131C313.283 102.741 274.898 103.215 235.456 99.7731L233.717 100.284C273.648 103.769 312.97 103.318 352.695 98.574L351.88 98.131Z" fill="black" mask="url(#path-1-outside-1_1_777)"/>
</g>
<defs>
<filter id="filter0_d_1_777" x="0.94989" y="0.423706" width="624.232" height="121.364" filterUnits="userSpaceOnUse" color-interpolation-filters="sRGB">
<feFlood flood-opacity="0" result="BackgroundImageFix"/>
<feColorMatrix in="SourceAlpha" type="matrix" values="0 0 0 0 0 0 0 0 0 0 0 0 0 0 0 0 0 0 127 0" result="hardAlpha"/>
<feOffset dy="4"/>
<feGaussianBlur stdDeviation="2"/>
<feComposite in2="hardAlpha" operator="out"/>
<feColorMatrix type="matrix" values="0 0 0 0 0 0 0 0 0 0 0 0 0 0 0 0 0 0 0.25 0"/>
<feBlend mode="normal" in2="BackgroundImageFix" result="effect1_dropShadow_1_777"/>
<feBlend mode="normal" in="SourceGraphic" in2="effect1_dropShadow_1_777" result="shape"/>
</filter>
</defs>
</svg>
